<svg xmlns="http://www.w3.org/2000/svg" xmlns:xlink="http://www.w3.org/1999/xlink" viewBox="0 0 500 500" role="img" aria-hidden="true" focusable="false"><defs><linearGradient id="a" x1="241.85" y1="664.66" x2="645.59" y2="249.09" gradientUnits="userSpaceOnUse"><stop offset="0" stop-color="#a8ff78"/><stop offset="1" stop-color="#009245"/></linearGradient><linearGradient id="b" x1="139.41" y1="565.14" x2="543.14" y2="149.57" xlink:href="#a"/><linearGradient id="c" x1="35.88" y1="464.56" x2="439.62" y2="48.99" xlink:href="#a"/><linearGradient id="d" x1="-64.76" y1="366.78" x2="338.97" y2="-48.79" xlink:href="#a"/><linearGradient id="e" x1="-164.26" y1="270.12" x2="239.48" y2="-145.45" xlink:href="#a"/><linearGradient id="f" x1="-61.81" y1="369.65" x2="341.92" y2="-45.92" xlink:href="#a"/><linearGradient id="g" x1="41.71" y1="470.23" x2="445.45" y2="54.66" xlink:href="#a"/><linearGradient id="h" x1="142.36" y1="568.01" x2="546.09" y2="152.43" xlink:href="#a"/><linearGradient id="i" x1="287.14" y1="32.56" x2="97.76" y2="335.03" xlink:href="#a"/><linearGradient id="j" x1="410.88" y1="110.03" x2="221.5" y2="412.5" xlink:href="#a"/><linearGradient id="k" x1="324.78" y1="56.13" x2="135.41" y2="358.6" xlink:href="#a"/></defs><title>icon-01</title><path d="M451.31,460H447a11.09,11.09,0,1,1,13-13v4.35A8.69,8.69,0,0,1,451.31,460Z" style="fill:url(#a)"/><path d="M415.76,460h-9.1a8.7,8.7,0,1,1,0-17.39h9.1a8.7,8.7,0,0,1,0,17.39Zm-40.31,0h-9.1a8.7,8.7,0,0,1,0-17.39h9.1a8.7,8.7,0,1,1,0,17.39Zm-40.3,0h-9.1a8.7,8.7,0,0,1,0-17.39h9.1a8.7,8.7,0,1,1,0,17.39Zm-40.3,0h-9.1a8.7,8.7,0,0,1,0-17.39h9.1a8.7,8.7,0,1,1,0,17.39Zm-40.3,0h-9.1a8.7,8.7,0,0,1,0-17.39h9.1a8.7,8.7,0,0,1,0,17.39Zm-40.3,0h-9.1a8.7,8.7,0,1,1,0-17.39h9.1a8.7,8.7,0,0,1,0,17.39ZM174,460h-9.1a8.7,8.7,0,1,1,0-17.39H174A8.7,8.7,0,0,1,174,460Zm-40.31,0h-9.1a8.7,8.7,0,0,1,0-17.39h9.1a8.7,8.7,0,1,1,0,17.39Zm-40.3,0h-9.1a8.7,8.7,0,0,1,0-17.39h9.1a8.7,8.7,0,1,1,0,17.39Z" style="fill:url(#b)"/><path d="M53,460H48.69A8.69,8.69,0,0,1,40,451.31V447a8.69,8.69,0,0,1,16.62-3.58A8.69,8.69,0,0,1,53,460Z" style="fill:url(#c)"/><path d="M48.69,424.45A8.69,8.69,0,0,1,40,415.76v-9.1a8.7,8.7,0,1,1,17.39,0v9.1A8.69,8.69,0,0,1,48.69,424.45Zm0-40.3a8.69,8.69,0,0,1-8.69-8.7v-9.1a8.7,8.7,0,0,1,17.39,0v9.1A8.69,8.69,0,0,1,48.69,384.15Zm0-40.3a8.69,8.69,0,0,1-8.69-8.7v-9.1a8.7,8.7,0,0,1,17.39,0v9.1A8.69,8.69,0,0,1,48.69,343.85Zm0-40.3a8.7,8.7,0,0,1-8.69-8.7v-9.1a8.7,8.7,0,0,1,17.39,0v9.1A8.7,8.7,0,0,1,48.69,303.55Zm0-40.31A8.69,8.69,0,0,1,40,254.55v-9.1a8.7,8.7,0,0,1,17.39,0v9.1A8.69,8.69,0,0,1,48.69,263.24Zm0-40.3A8.69,8.69,0,0,1,40,214.25v-9.1a8.7,8.7,0,1,1,17.39,0v9.1A8.69,8.69,0,0,1,48.69,222.94Zm0-40.3A8.69,8.69,0,0,1,40,174v-9.1a8.7,8.7,0,1,1,17.39,0V174A8.69,8.69,0,0,1,48.69,182.64Zm0-40.3a8.69,8.69,0,0,1-8.69-8.7v-9.1a8.7,8.7,0,0,1,17.39,0v9.1A8.69,8.69,0,0,1,48.69,142.34Zm0-40.3A8.7,8.7,0,0,1,40,93.34v-9.1a8.7,8.7,0,0,1,17.39,0v9.1A8.7,8.7,0,0,1,48.69,102Z" style="fill:url(#d)"/><path d="M48.69,61.74A8.7,8.7,0,0,1,40,53V48.69A8.69,8.69,0,0,1,48.69,40H53a8.69,8.69,0,0,1,3.58,16.62A8.69,8.69,0,0,1,48.69,61.74Z" style="fill:url(#e)"/><path d="M415.76,57.39h-9.1a8.7,8.7,0,1,1,0-17.39h9.1a8.7,8.7,0,0,1,0,17.39Zm-40.3,0h-9.1a8.7,8.7,0,1,1,0-17.39h9.1a8.7,8.7,0,0,1,0,17.39Zm-40.31,0h-9.1a8.7,8.7,0,0,1,0-17.39h9.1a8.7,8.7,0,1,1,0,17.39Zm-40.3,0h-9.1a8.7,8.7,0,0,1,0-17.39h9.1a8.7,8.7,0,1,1,0,17.39Zm-40.3,0h-9.1a8.7,8.7,0,0,1,0-17.39h9.1a8.7,8.7,0,1,1,0,17.39Zm-40.3,0h-9.1a8.7,8.7,0,1,1,0-17.39h9.1a8.7,8.7,0,0,1,0,17.39Zm-40.3,0h-9.1a8.7,8.7,0,1,1,0-17.39H174a8.7,8.7,0,0,1,0,17.39Zm-40.3,0h-9.11a8.7,8.7,0,0,1,0-17.39h9.11a8.7,8.7,0,0,1,0,17.39Zm-40.31,0h-9.1a8.7,8.7,0,0,1,0-17.39h9.1a8.7,8.7,0,1,1,0,17.39Z" style="fill:url(#f)"/><path d="M451.31,61.74a8.69,8.69,0,0,1-7.93-5.12A8.69,8.69,0,0,1,447,40h4.35A8.69,8.69,0,0,1,460,48.69V53A8.7,8.7,0,0,1,451.31,61.74Z" style="fill:url(#g)"/><path d="M451.31,424.45a8.69,8.69,0,0,1-8.7-8.69v-9.1a8.7,8.7,0,1,1,17.39,0v9.1A8.69,8.69,0,0,1,451.31,424.45Zm0-40.3a8.69,8.69,0,0,1-8.7-8.69v-9.1a8.7,8.7,0,1,1,17.39,0v9.1A8.69,8.69,0,0,1,451.31,384.15Zm0-40.3a8.69,8.69,0,0,1-8.7-8.7v-9.1a8.7,8.7,0,0,1,17.39,0v9.1A8.69,8.69,0,0,1,451.31,343.85Zm0-40.3a8.7,8.7,0,0,1-8.7-8.7v-9.1a8.7,8.7,0,0,1,17.39,0v9.1A8.7,8.7,0,0,1,451.31,303.55Zm0-40.3a8.7,8.7,0,0,1-8.7-8.7v-9.1a8.7,8.7,0,0,1,17.39,0v9.1A8.7,8.7,0,0,1,451.31,263.25Zm0-40.31a8.69,8.69,0,0,1-8.7-8.69v-9.1a8.7,8.7,0,1,1,17.39,0v9.1A8.69,8.69,0,0,1,451.31,222.94Zm0-40.3a8.69,8.69,0,0,1-8.7-8.69v-9.1a8.7,8.7,0,1,1,17.39,0V174A8.69,8.69,0,0,1,451.31,182.64Zm0-40.3a8.69,8.69,0,0,1-8.7-8.69v-9.11a8.7,8.7,0,0,1,17.39,0v9.11A8.69,8.69,0,0,1,451.31,142.34Zm0-40.3a8.69,8.69,0,0,1-8.7-8.7v-9.1a8.7,8.7,0,0,1,17.39,0v9.1A8.69,8.69,0,0,1,451.31,102Z" style="fill:url(#h)"/><circle cx="190.09" cy="187.56" r="20.21" style="fill:url(#i)"/><path d="M348.07,227.28,233.46,321.05l-59.07-47.26L97.53,342.16v45.4a15,15,0,0,0,14.91,14.91H387.56a15,15,0,0,0,14.91-14.91V263.92Z" style="fill:url(#j)"/><path d="M173.8,251.05l59.54,47.63,113.72-93L402.47,243V112.44a15,15,0,0,0-14.91-14.91H112.44a15,15,0,0,0-14.91,14.91V318.88ZM190.09,150a37.6,37.6,0,1,1-37.59,37.6A37.65,37.65,0,0,1,190.09,150Z" style="fill:url(#k)"/></svg>